<?xml version="1.0" encoding="iso-8859-1"?>
<!-- Generator: Adobe Illustrator 19.0.0, SVG Export Plug-In . SVG Version: 6.00 Build 0)  -->
<svg version="1.1" id="Layer_1" xmlns="http://www.w3.org/2000/svg" xmlns:xlink="http://www.w3.org/1999/xlink" x="0px" y="0px"
	 viewBox="0 0 297 297" style="enable-background:new 0 0 297 297;" xml:space="preserve">
<g>
	<g>
		<g>
			<g>
				<g>
					<g>
						<circle style="fill:#79302A;" cx="148.5" cy="148.5" r="148.5"/>
					</g>
				</g>
			</g>
		</g>
	</g>
	<path style="fill:#561E1B;" d="M168.869,49.5l-57.506,46.754L66,231l64.964,64.964c5.752,0.677,11.602,1.036,17.536,1.036
		c72.38,0,132.654-51.786,145.819-120.325L168.869,49.5z"/>
	<g>
		<path style="fill:#ECF0F1;" d="M168.869,49.5L156.73,73.777c-2.409,4.817-0.456,10.676,4.361,13.084l85.62,42.81
			c2.854,1.427,4.657,4.345,4.657,7.536v19.367c0,4.653-3.772,8.425-8.425,8.425h-74.075c0,0,20.166,41.167,16.5,66H66
			C66,231,55.369,80.5,168.869,49.5z"/>
	</g>
	<g>
		<path style="fill:#E3E5E4;" d="M246.712,129.671l-85.62-42.81c-4.818-2.409-6.77-8.267-4.361-13.084L168.869,49.5
			c-7.554,2.063-14.542,4.67-21.035,7.712V231h37.535c3.666-24.833-16.5-66-16.5-66h74.075c4.653,0,8.425-3.772,8.425-8.425v-19.368
			C251.369,134.016,249.566,131.098,246.712,129.671z"/>
	</g>
	<g>
		<circle style="fill:#32373B;" cx="156.5" cy="109.5" r="7.5"/>
	</g>
</g>
<g>
</g>
<g>
</g>
<g>
</g>
<g>
</g>
<g>
</g>
<g>
</g>
<g>
</g>
<g>
</g>
<g>
</g>
<g>
</g>
<g>
</g>
<g>
</g>
<g>
</g>
<g>
</g>
<g>
</g>
</svg>
