<?xml version="1.0" standalone="no"?><!DOCTYPE svg PUBLIC "-//W3C//DTD SVG 1.1//EN" "http://www.w3.org/Graphics/SVG/1.1/DTD/svg11.dtd"><svg t="1602323749405" class="icon" viewBox="0 0 1024 1024" version="1.1" xmlns="http://www.w3.org/2000/svg" p-id="2504" xmlns:xlink="http://www.w3.org/1999/xlink" width="200" height="200"><defs><style type="text/css"></style></defs><path d="M1023.744702 513.148841q0 250.191972 0.255298 500.383944c0 8.731189-1.736026 10.467215-10.467215 10.467215q-500.383944-0.459536-1000.767888 0c-8.731189 0-10.467215-1.736026-10.467216-10.467215q0.459536-500.383944 0-1000.767888C2.297681 4.033707 4.033707 2.297681 12.764897 2.297681q500.383944 0.459536 1000.767888 0c8.731189 0 10.467215 1.736026 10.467215 10.467216q-0.485066 250.191972-0.255298 500.383944z" fill="#FEFEFE" p-id="2505"></path><path d="M288.333483 328.747145l-4.518773 0.842484c-21.572675 6.101621-43.936774 9.803441-64.105311 20.423834-11.718175 2.782747-19.274994 10.850162-25.759561 20.296185-9.777911 15.828472-11.15652 33.392969-11.0544 51.442534 0.280828 65.35627 0.280828 130.712541 0.510595 196.06881 0 30.89105 15.317876 50.880878 44.396311 60.786438a73.168387 73.168387 0 0 1 6.893044 3.216753c10.645924 5.105959 22.18539 7.42917 33.622737 10.058739l20.040888 5.795263c9.012017 7.888706 20.781252 8.57801 31.478235 11.922413 3.906058 1.25096 8.348242 0.842483 12.2543 2.706158 19.913239 3.242284 38.29469 8.067415 48.991673 28.38913 7.097282 13.352082 17.25814 25.121316 26.321217 37.375617 1.838145 2.552979 4.008178 4.825131 2.986986 7.863177-1.27649 3.829469-5.105959 2.221092-7.658938 2.221092-63.824483 0-127.444727 0.868013-191.141561-0.485066A118.917776 118.917776 0 0 1 140.413862 763.340813a203.804338 203.804338 0 0 1-28.593368-25.070257c-11.360758-12.254301-17.870855-27.750885-27.112641-41.332735A139.903266 139.903266 0 0 1 74.0364 642.406183V383.968088a137.094989 137.094989 0 0 1 10.671453-54.633757c7.914236-6.944104 9.573672-17.385789 14.526453-25.98933 6.382448-3.369933 9.446023-9.497083 12.764896-15.317876a120.321915 120.321915 0 0 0 13.454201-14.475392v-0.204239c5.335727-3.063575 10.875692-5.871852 14.679631-10.977811l2.731688-1.812615a58.258988 58.258988 0 0 0 23.283171-12.228771c22.568337-8.297183 45.953628-10.901222 69.875044-10.645924 54.684817 0.561655 109.395163 0.280828 164.07998 0.536126 3.420992 0 8.195064-2.170032 10.211917 2.323211s-2.552979 6.510097-4.697482 9.471554c-7.275991 10.390626-15.700823 20.194066-21.496085 31.350585-10.620394 20.423834-28.082772 29.027375-49.37462 32.703665-15.98165 3.420992-31.988831 6.510097-46.413164 14.679631zM737.81102 697.729245c21.470556-6.561157 43.17088-12.484069 64.335078-19.862179 27.418998-9.522613 41.99651-29.66562 42.200748-58.718524 0.485066-69.747395 0.153179-139.494789 0.306358-209.344304 0-27.18923-12.075592-46.796111-35.614062-59.790775-8.68013-7.837646-20.423834-7.020693-30.508102-10.645924-5.105959-4.442184-12.27983-2.323211-17.870856-5.105958-4.493244-4.212416-10.824632-2.552979-15.879531-4.92725l-4.518773-0.714835c-7.837646-9.267315-20.117477-8.450362-30.125156-11.360758s-20.423834-7.505759-31.376116-8.373772c-7.327051-3.75288-15.317876-5.897382-22.261979-10.696983-12.764897-17.487908-25.529793-34.924757-38.064922-52.463725-3.038045-4.212416-4.212416-7.812117 3.369933-7.786587 66.709349 0.178709 133.444228 0 200.153578 0.689305a102.834006 102.834006 0 0 1 38.294689 9.114136c4.95278 5.105959 11.616056 7.224931 18.075094 9.624732 8.297183 4.186886 14.398803 11.590526 22.849165 15.547644 5.744203 4.467714 9.012017 11.462877 15.471054 15.164697 8.960957 13.352082 16.824134 27.418998 25.529793 40.847669 8.986487 15.088108 10.901222 31.886712 10.926752 48.864024q0.255298 134.950486 0 269.900972c0 16.977312-1.965794 33.801446-10.977811 48.915084-7.658938 14.220095-17.028372 27.291349-25.529793 40.847669-9.343904 9.573672-20.781252 16.722014-30.508103 25.88721-7.35258 6.969634-19.121815 6.101621-25.836151 14.322214l-2.552979 0.714834c-5.769733 2.552979-12.764897 0.612715-18.049564 4.850661a94.153877 94.153877 0 0 1-23.870356 2.552979c-60.811967 0-121.649464 0.178709-182.486961-0.229768-4.646422 0-14.092446 4.697482-12.969135-7.224932l35.74171-51.059586a147.766442 147.766442 0 0 1 17.870855-9.777911l19.73453-5.948441c15.726353-1.812615 30.099626-7.505759 44.141013-13.811618z" fill="#FE6900" p-id="2506"></path><path d="M514.42533 476.794415c44.243131 0 88.511793 0.229768 132.754924-0.204238 8.960957 0 12.075592 2.884867 11.845824 11.539466-0.357417 14.015856-0.178709 28.082772 0 42.124159 0 7.888706-2.093443 12.126652-11.667115 12.101122q-134.031414-0.536126-268.062827 0c-8.271653 0-11.718175-2.552979-11.667116-10.722513 0-14.475393 0.178709-28.950785-0.255298-43.400648-0.255298-8.6546 2.859337-11.641586 11.845824-11.564997 45.009025 0.382947 90.12017 0.153179 135.205784 0.127649z" fill="#FD6901" p-id="2507"></path><path d="M620.55268 778.811867c2.221092 8.220593 9.114136 4.87619 13.837148 4.876191 66.811468 0 133.597407-0.178709 200.383346-0.357417 1.710496 0 3.395462 0.229768 5.105958 0.331887-13.147843 6.407978-27.265819 5.105959-41.179556 5.105959q-86.801296 0-173.602593-0.229768c-3.089105 0-7.42917 1.914734-9.088606-2.144503-1.378609-3.523111 0.434006-6.561157 4.544303-7.582349z" fill="#E08F4D" p-id="2508"></path><path d="M860.354026 778.097033a8.807779 8.807779 0 0 1 6.407978-8.501421c17.462378-3.344403 27.699825-17.079432 40.311544-27.291349 2.986986-2.42533 5.284667-5.361257 9.624732-4.416654-14.220095 19.862179-33.852506 32.09095-56.344254 40.209424z" fill="#E2813A" p-id="2509"></path><path d="M678.837198 309.165794c13.301022-2.552979 24.738369 5.310197 37.350087 6.969634 3.931588 0.510596 8.373772 2.833807 12.918075 3.038045a10.696983 10.696983 0 0 1 11.233109 9.726851c-20.806781-5.642084-41.817801-10.620394-61.501271-19.73453z" fill="#DF7A33" p-id="2510"></path><path d="M219.709399 349.962403c0-2.195562 0.587185-4.340065 3.012516-5.105958 20.194066-5.744203 39.239292-16.160359 61.092795-15.317876-20.653603 9.063077-42.481576 14.424333-64.105311 20.423834z" fill="#E48442" p-id="2511"></path><path d="M942.177013 329.334331c-9.675792-7.505759-25.044727-32.09095-25.529793-40.847669 13.071254 10.671454 20.908901 24.738369 25.529793 40.847669z" fill="#E67A35" p-id="2512"></path><path d="M332.117078 712.281227c-12.943605 3.293343-24.227774-4.671952-36.635253-5.412317-5.105959-0.306358-6.305859-4.90172-7.097282-9.216255 14.85834 3.982648 30.150686 6.714336 43.732535 14.628572z" fill="#DC7D33" p-id="2513"></path><path d="M916.519571 737.81102a16.977312 16.977312 0 0 1 8.041885-16.696485c8.067415-5.718674 7.658938-18.840987 17.513438-24.202244-4.799601 16.00718-12.33089 30.252805-25.555323 40.898729z" fill="#E77A33" p-id="2514"></path><path d="M84.733383 696.963351c6.586687 4.084767 11.922413 8.833308 12.764897 17.360259 0.536126 5.284667 4.95278 8.60354 8.475891 12.126652s6.356918 6.688806 5.846323 11.845824c-13.505261-10.850162-21.572675-25.274495-27.087111-41.332735z" fill="#E38944" p-id="2515"></path><path d="M288.333483 328.747145c12.918075-12.918075 29.512441-14.117976 46.362104-14.628571a276.130242 276.130242 0 0 1-46.362104 14.628571z" fill="#E28C47" p-id="2516"></path><path d="M737.81102 697.729245c-12.892545 10.211917-27.08711 16.313538-43.962304 14.245624A223.819696 223.819696 0 0 1 737.81102 697.729245z" fill="#DE8C43" p-id="2517"></path><path d="M111.871553 738.296086c10.390626 7.37811 21.598205 13.837148 28.593368 25.070257-11.999003-5.539965-22.134331-13.198903-28.593368-25.070257z" fill="#E38944" p-id="2518"></path><path d="M99.234306 303.44712c-3.344403 9.497083-0.408477 22.517277-14.526453 25.98933a56.012366 56.012366 0 0 1 14.526453-25.98933z" fill="#E0823A" p-id="2519"></path><path d="M778.658689 339.546248c11.539466-0.357417 23.563999-2.118973 30.482573 10.645924-10.058738-3.67629-21.470556-3.854999-30.482573-10.645924z" fill="#DD833E" p-id="2520"></path><path d="M268.343655 691.857392c-12.484069 0.944602-24.202244-0.689304-33.622738-10.058738a94.102817 94.102817 0 0 1 33.622738 10.058738z" fill="#D88A3C" p-id="2521"></path><path d="M194.026427 370.182c5.105959-11.13099 11.003341-21.368437 25.759562-20.296186A167.526502 167.526502 0 0 0 194.026427 370.182z" fill="#E48442" p-id="2522"></path><path d="M656.600748 298.5454a25.300025 25.300025 0 0 1 22.261979 10.696983c-8.731189-0.816953-17.641087-1.27649-22.261979-10.696983z" fill="#E47E36" p-id="2523"></path><path d="M901.201695 273.168786c-11.845824 1.046722-15.726353-9.650262-22.849164-15.547644 9.93109 1.761556 16.900723 7.888706 22.849164 15.547644z" fill="#E28340" p-id="2524"></path><path d="M111.922613 288.078185c0.995662 9.497083-2.552979 15.317876-12.764897 15.317876 2.782747-6.254799 5.514435-12.611718 12.764897-15.317876z" fill="#E0823A" p-id="2525"></path><path d="M166.071304 248.379357c-5.105959 9.241785-12.994665 12.943605-23.283171 12.228771 7.224931-5.105959 14.526452-10.033209 23.283171-12.228771z" fill="#DF8844" p-id="2526"></path><path d="M878.37806 257.85091c-8.450362 1.327549-15.675293 0.382947-18.075093-9.624732a28.082772 28.082772 0 0 1 18.075093 9.624732z" fill="#E2863B" p-id="2527"></path><path d="M674.216305 717.923311a19.964298 19.964298 0 0 1-17.870855 9.777911c3.497582-7.761057 10.288507-9.471553 17.870855-9.777911z" fill="#E18842" p-id="2528"></path><path d="M916.64722 288.486662c-10.033209 0-11.0544-9.343904-15.471054-15.164697a27.853004 27.853004 0 0 1 15.471054 15.164697z" fill="#E28340" p-id="2529"></path><path d="M125.376814 273.602792c-1.863675 7.275991-5.642084 12.764897-13.454201 14.475393 1.940264-7.250461 7.863176-10.696983 13.454201-14.475393z" fill="#E0823A" p-id="2530"></path><path d="M140.056445 262.420743c-2.552979 6.816455-6.407978 11.820294-14.679631 10.977811a29.920917 29.920917 0 0 1 14.679631-10.977811z" fill="#E59254" p-id="2531"></path><path d="M760.787833 334.440289c6.12715 1.1999 14.117976-4.289005 17.870856 5.105959a28.823136 28.823136 0 0 1-17.870856-5.105959z" fill="#DD833E" p-id="2532"></path><path d="M839.930192 783.764647c4.084767-8.782249 11.820294-4.059237 18.049564-4.85066A26.014859 26.014859 0 0 1 839.930192 783.764647z" fill="#E08F4D" p-id="2533"></path><path d="M744.857243 329.615158c5.514435 0.893543 12.994665-4.518773 15.879531 4.92725a23.43635 23.43635 0 0 1-15.879531-4.92725z" fill="#DD833E" p-id="2534"></path></svg>